<svg width="17" height="17" viewBox="0 0 17 17" fill="none" xmlns="http://www.w3.org/2000/svg">
<g clip-path="url(#clip0_51_2632)">
<rect width="17" height="17" rx="8.5" fill="#888888"/>
<path d="M8.668 4.13C9.62 4.13 10.3807 4.39133 10.95 4.914C11.5287 5.43667 11.818 6.15067 11.818 7.056C11.818 7.99867 11.5193 8.708 10.922 9.184C10.3247 9.66 9.53133 9.898 8.542 9.898L8.486 11.004H7.1L7.03 8.806H7.492C8.39733 8.806 9.088 8.68467 9.564 8.442C10.0493 8.19933 10.292 7.73733 10.292 7.056C10.292 6.56133 10.1473 6.174 9.858 5.894C9.578 5.614 9.186 5.474 8.682 5.474C8.178 5.474 7.78133 5.60933 7.492 5.88C7.20267 6.15067 7.058 6.52867 7.058 7.014H5.56C5.56 6.454 5.686 5.95467 5.938 5.516C6.19 5.07733 6.54933 4.73667 7.016 4.494C7.492 4.25133 8.04267 4.13 8.668 4.13ZM7.772 14.098C7.48267 14.098 7.24 14 7.044 13.804C6.848 13.608 6.75 13.3653 6.75 13.076C6.75 12.7867 6.848 12.544 7.044 12.348C7.24 12.152 7.48267 12.054 7.772 12.054C8.052 12.054 8.29 12.152 8.486 12.348C8.682 12.544 8.78 12.7867 8.78 13.076C8.78 13.3653 8.682 13.608 8.486 13.804C8.29 14 8.052 14.098 7.772 14.098Z" fill="white"/>
</g>
<defs>
<clipPath id="clip0_51_2632">
<rect width="17" height="17" rx="8.5" fill="white"/>
</clipPath>
</defs>
</svg>
