<svg width="23" height="20" viewBox="0 0 23 20" fill="none" xmlns="http://www.w3.org/2000/svg">
<g clip-path="url(#clip0_47_1760)">
<path d="M0 2.5C0 1.12109 1.12109 0 2.5 0H8.75V5C8.75 5.69141 9.30859 6.25 10 6.25H15V11.25H8.4375C7.91797 11.25 7.5 11.668 7.5 12.1875C7.5 12.707 7.91797 13.125 8.4375 13.125H15V17.5C15 18.8789 13.8789 20 12.5 20H2.5C1.12109 20 0 18.8789 0 17.5V2.5ZM15 13.125V11.25H19.3008L17.7773 9.72656C17.4102 9.35938 17.4102 8.76562 17.7773 8.40234C18.1445 8.03906 18.7383 8.03516 19.1016 8.40234L22.2266 11.5273C22.5938 11.8945 22.5938 12.4883 22.2266 12.8516L19.1016 15.9766C18.7344 16.3438 18.1406 16.3438 17.7773 15.9766C17.4141 15.6094 17.4102 15.0156 17.7773 14.6523L19.3008 13.1289H15V13.125ZM15 5H10V0L15 5Z" fill="#1A4E99"/>
</g>
<defs>
<clipPath id="clip0_47_1760">
<rect width="22.5" height="20" fill="white"/>
</clipPath>
</defs>
</svg>
