<svg width="43" height="40" viewBox="0 0 43 40" fill="none" xmlns="http://www.w3.org/2000/svg">
<path d="M41.7813 8.10938L37.3048 1.02344C36.9063 0.390625 36.1954 0 35.4376 0H7.56257C6.80476 0 6.09382 0.390625 5.69538 1.02344L1.21101 8.10938C-1.10149 11.7656 0.945384 16.8516 5.2657 17.4375C5.5782 17.4766 5.89851 17.5 6.21101 17.5C8.25007 17.5 10.0626 16.6094 11.3048 15.2344C12.5469 16.6094 14.3594 17.5 16.3985 17.5C18.4376 17.5 20.2501 16.6094 21.4923 15.2344C22.7344 16.6094 24.5469 17.5 26.586 17.5C28.6329 17.5 30.4376 16.6094 31.6798 15.2344C32.9298 16.6094 34.7344 17.5 36.7735 17.5C37.0938 17.5 37.4063 17.4766 37.7188 17.4375C42.0548 16.8594 44.1094 11.7734 41.7891 8.10938H41.7813ZM38.0391 19.9141H38.0313C37.6173 19.9688 37.1954 20 36.7657 20C35.7969 20 34.8673 19.8516 34.0001 19.5859V30H9.00007V19.5781C8.12507 19.8516 7.18757 20 6.21882 20C5.78913 20 5.35945 19.9688 4.94538 19.9141H4.93757C4.61726 19.8672 4.30476 19.8125 4.00007 19.7344V30V35C4.00007 37.7578 6.24226 40 9.00007 40H34.0001C36.7579 40 39.0001 37.7578 39.0001 35V30V19.7344C38.6876 19.8125 38.3751 19.875 38.0391 19.9141Z" fill="#555555"/>
</svg>
