<svg width="40" height="40" viewBox="0 0 40 40" fill="none" xmlns="http://www.w3.org/2000/svg">
<rect x="0.5" y="0.5" width="39" height="39" rx="4.5" fill="white"/>
<rect x="0.5" y="0.5" width="39" height="39" rx="4.5" stroke="#AAAAAA"/>
<g clip-path="url(#clip0_50_2494)">
<path d="M26.6154 10C28.3154 10 29.7862 10.7054 30.7023 11.8508C31.6169 12.9969 32 14.4815 32 16.0815V18.4615H29.6923V16.0815C29.6923 14.8662 29.3931 13.9123 28.8992 13.2931C28.4046 12.6746 27.7377 12.3077 26.6154 12.3077C25.49 12.3077 24.8246 12.6538 24.3315 13.2692C23.8392 13.8846 23.5385 14.8538 23.5385 16.0815V19.9231H21.2308V16.0815C21.2308 14.4723 21.6362 12.9708 22.5531 11.8269C23.4692 10.6831 24.9185 10 26.6154 10ZM25.0769 17.6923C26.3508 17.6923 27.3846 18.7262 27.3846 20V27.6923C27.3846 28.9662 26.3508 30 25.0769 30H14.3077C13.0338 30 12 28.9662 12 27.6923V20C12 18.7262 13.0338 17.6923 14.3077 17.6923H25.0769ZM19.6923 21.5385C19.2843 21.5385 18.893 21.7005 18.6045 21.9891C18.3159 22.2776 18.1538 22.6689 18.1538 23.0769C18.1538 23.6446 18.4646 24.1323 18.9231 24.3992V26.1538C18.9231 26.5777 19.2685 26.9231 19.6923 26.9231C20.1162 26.9231 20.4615 26.5777 20.4615 26.1538V24.3992C20.92 24.1323 21.2308 23.6454 21.2308 23.0769C21.2308 22.6689 21.0687 22.2776 20.7802 21.9891C20.4916 21.7005 20.1003 21.5385 19.6923 21.5385Z" fill="#00B388"/>
</g>
<defs>
<clipPath id="clip0_50_2494">
<rect width="20" height="20" fill="white" transform="matrix(-1 0 0 1 32 10)"/>
</clipPath>
</defs>
</svg>
