<svg width="40" height="40" viewBox="0 0 40 40" fill="none" xmlns="http://www.w3.org/2000/svg">
<rect x="0.5" y="0.5" width="39" height="39" rx="4.5" fill="white"/>
<rect x="0.5" y="0.5" width="39" height="39" rx="4.5" stroke="#AAAAAA"/>
<g clip-path="url(#clip0_94_224)">
<path d="M19.6922 10C17.9922 10 16.5215 10.7054 15.6053 11.8508C14.6907 12.9969 14.3076 14.4815 14.3076 16.0815V18.4615H16.6153V16.0815C16.6153 14.8662 16.9145 13.9123 17.4084 13.2931C17.903 12.6746 18.5699 12.3077 19.6922 12.3077C20.8176 12.3077 21.483 12.6538 21.9761 13.2692C22.4684 13.8846 22.7692 14.8538 22.7692 16.0815V18.4615H25.0768V16.0815C25.0768 14.4723 24.6715 12.9708 23.7545 11.8269C22.8384 10.6831 21.3892 10 19.6922 10Z" fill="#EE4F4C"/>
<path d="M14.3077 17.6923C13.0338 17.6923 12 18.7262 12 20V27.6923C12 28.9662 13.0338 30 14.3077 30H25.0769C26.3508 30 27.3846 28.9662 27.3846 27.6923V20C27.3846 18.7262 26.3508 17.6923 25.0769 17.6923H14.3077ZM19.6923 21.5385C20.1003 21.5385 20.4916 21.7005 20.7802 21.9891C21.0687 22.2776 21.2308 22.6689 21.2308 23.0769C21.2308 23.6446 20.92 24.1323 20.4615 24.3992V26.1538C20.4615 26.5777 20.1162 26.9231 19.6923 26.9231C19.2685 26.9231 18.9231 26.5777 18.9231 26.1538V24.3992C18.4646 24.1323 18.1538 23.6454 18.1538 23.0769C18.1538 22.6689 18.3159 22.2776 18.6045 21.9891C18.893 21.7005 19.2843 21.5385 19.6923 21.5385Z" fill="#EE4F4C"/>
</g>
<defs>
<clipPath id="clip0_94_224">
<rect width="15.3846" height="20" fill="white" transform="translate(12 10)"/>
</clipPath>
</defs>
</svg>
