<svg width="22" height="22" viewBox="0 0 22 22" fill="none" xmlns="http://www.w3.org/2000/svg">
<path d="M20.0742 4.82422C20.8066 4.0918 20.8066 2.90234 20.0742 2.16992C19.3418 1.4375 18.1523 1.4375 17.4199 2.16992L11.25 8.3457L5.07422 2.17578C4.3418 1.44336 3.15234 1.44336 2.41992 2.17578C1.6875 2.9082 1.6875 4.09766 2.41992 4.83008L8.5957 11L2.42578 17.1758C1.69336 17.9082 1.69336 19.0977 2.42578 19.8301C3.1582 20.5625 4.34766 20.5625 5.08008 19.8301L11.25 13.6543L17.4258 19.8242C18.1582 20.5566 19.3477 20.5566 20.0801 19.8242C20.8125 19.0918 20.8125 17.9023 20.0801 17.1699L13.9043 11L20.0742 4.82422Z" fill="#AAAAAA"/>
</svg>
